HIERARCHY
ROOT hip
{
  OFFSET 0 0 0
  CHANNELS 6 Xposition Yposition Zposition Zrotation Yrotation Xrotation
  JOINT abdomen
  {
    OFFSET 0 20.6881 -0.73152
    CHANNELS 3 Zrotation Xrotation Yrotation
    JOINT chest
    {
      OFFSET 0 11.7043 -0.48768
      CHANNELS 3 Zrotation Xrotation Yrotation
      JOINT neck
      {
        OFFSET 0 22.1894 -2.19456
        CHANNELS 3 Zrotation Xrotation Yrotation
        JOINT head
        {
          OFFSET -0.24384 7.07133 1.2192
          CHANNELS 3 Zrotation Xrotation Yrotation
          JOINT leftEye
          {
            OFFSET 4.14528 8.04674 8.04672
            CHANNELS 3 Zrotation Xrotation Yrotation
            End Site
            {
              OFFSET 1 0 0
            }
          }
          JOINT rightEye
          {
            OFFSET -3.6576 8.04674 8.04672
            CHANNELS 3 Zrotation Xrotation Yrotation
            End Site
            {
              OFFSET 1 0 0
            }
          }
        }
      }
      JOINT rCollar
      {
        OFFSET -2.68224 19.2634 -4.8768
        CHANNELS 3 Zrotation Xrotation Yrotation
        JOINT rShldr
        {
          OFFSET -8.77824 -1.95073 1.46304
          CHANNELS 3 Zrotation Xrotation Yrotation
          JOINT rForeArm
          {
            OFFSET -28.1742 -1.7115 0.48768
            CHANNELS 3 Zrotation Xrotation Yrotation
            JOINT rHand
            {
              OFFSET -22.5879 0.773209 7.07136
              CHANNELS 3 Zrotation Xrotation Yrotation
              JOINT rThumb1
              {
                OFFSET -1.2192 -0.487915 3.41376
                CHANNELS 3 Zrotation Xrotation Yrotation
                JOINT rThumb2
                {
                  OFFSET -3.37035 -0.52449 3.41376
                  CHANNELS 3 Zrotation Xrotation Yrotation
                  End Site
                  {
                    OFFSET -1.78271 -1.18214 1.43049
                  }
                }
              }
              JOINT rIndex1
              {
                OFFSET -7.75947 0.938293 5.60832
                CHANNELS 3 Zrotation Xrotation Yrotation
                JOINT rIndex2
                {
                  OFFSET -2.54057 -0.884171 1.56538
                  CHANNELS 3 Zrotation Xrotation Yrotation
                  End Site
                  {
                    OFFSET -1.62519 -0.234802 1.16502
                  }
                }
              }
              JOINT rMid1
              {
                OFFSET -8.24714 1.18213 3.41376
                CHANNELS 3 Zrotation Xrotation Yrotation
                JOINT rMid2
                {
                  OFFSET -3.10165 -0.590103 1.0647
                  CHANNELS 3 Zrotation Xrotation Yrotation
                  End Site
                  {
                    OFFSET -2.48547 -0.328903 0.83742
                  }
                }
              }
              JOINT rRing1
              {
                OFFSET -8.82822 0.546677 1.51678
                CHANNELS 3 Zrotation Xrotation Yrotation
                JOINT rRing2
                {
                  OFFSET -2.60934 -0.819778 -0.0198488
                  CHANNELS 3 Zrotation Xrotation Yrotation
                  End Site
                  {
                    OFFSET -2.33842 -0.294052 0.168128
                  }
                }
              }
              JOINT rPinky1
              {
                OFFSET -8.27202 -0.0477905 -0.4584
                CHANNELS 3 Zrotation Xrotation Yrotation
                JOINT rPinky2
                {
                  OFFSET -1.82734 -0.647385 -0.700984
                  CHANNELS 3 Zrotation Xrotation Yrotation
                  End Site
                  {
                    OFFSET -1.69225 -0.51767 -0.607171
                  }
                }
              }
            }
          }
        }
      }
      JOINT lCollar
      {
        OFFSET 2.68224 19.2634 -4.8768
        CHANNELS 3 Zrotation Xrotation Yrotation
        JOINT lShldr
        {
          OFFSET 8.77824 -1.95073 1.46304
          CHANNELS 3 Zrotation Xrotation Yrotation
          JOINT lForeArm
          {
            OFFSET 28.1742 -1.7115 0.48768
            CHANNELS 3 Zrotation Xrotation Yrotation
            JOINT lHand
            {
              OFFSET 22.5879 0.773209 7.07136
              CHANNELS 3 Zrotation Xrotation Yrotation
              JOINT lThumb1
              {
                OFFSET 1.2192 -0.487915 3.41376
                CHANNELS 3 Zrotation Xrotation Yrotation
                JOINT lThumb2
                {
                  OFFSET 3.37035 -0.52449 3.41376
                  CHANNELS 3 Zrotation Xrotation Yrotation
                  End Site
                  {
                    OFFSET 1.78271 -1.18214 1.43049
                  }
                }
              }
              JOINT lIndex1
              {
                OFFSET 7.75947 0.938293 5.60832
                CHANNELS 3 Zrotation Xrotation Yrotation
                JOINT lIndex2
                {
                  OFFSET 2.54057 -0.884171 1.56538
                  CHANNELS 3 Zrotation Xrotation Yrotation
                  End Site
                  {
                    OFFSET 1.62519 -0.234802 1.16502
                  }
                }
              }
              JOINT lMid1
              {
                OFFSET 8.24714 1.18213 3.41376
                CHANNELS 3 Zrotation Xrotation Yrotation
                JOINT lMid2
                {
                  OFFSET 3.10165 -0.590103 1.0647
                  CHANNELS 3 Zrotation Xrotation Yrotation
                  End Site
                  {
                    OFFSET 2.48547 -0.328903 0.83742
                  }
                }
              }
              JOINT lRing1
              {
                OFFSET 8.82822 0.546677 1.51678
                CHANNELS 3 Zrotation Xrotation Yrotation
                JOINT lRing2
                {
                  OFFSET 2.60934 -0.819778 -0.0198488
                  CHANNELS 3 Zrotation Xrotation Yrotation
                  End Site
                  {
                    OFFSET 2.33842 -0.294052 0.168128
                  }
                }
              }
              JOINT lPinky1
              {
                OFFSET 8.27202 -0.0477905 -0.4584
                CHANNELS 3 Zrotation Xrotation Yrotation
                JOINT lPinky2
                {
                  OFFSET 1.82734 -0.647385 -0.700984
                  CHANNELS 3 Zrotation Xrotation Yrotation
                  End Site
                  {
                    OFFSET 1.69225 -0.51767 -0.607171
                  }
                }
              }
            }
          }
        }
      }
    }
  }
  JOINT rButtock
  {
    OFFSET -8.77824 4.35084 1.2192
    CHANNELS 3 Zrotation Xrotation Yrotation
    JOINT rThigh
    {
      OFFSET 0 -1.70687 -2.19456
      CHANNELS 3 Zrotation Xrotation Yrotation
      JOINT rShin
      {
        OFFSET 0 -36.8199 0.73152
        CHANNELS 3 Zrotation Xrotation Yrotation
        JOINT rFoot
        {
          OFFSET 0.73152 -45.1104 -5.12064
          CHANNELS 3 Zrotation Xrotation Yrotation
          End Site
          {
            OFFSET -1.1221 -3.69964 12.103
          }
        }
      }
    }
  }
  JOINT lButtock
  {
    OFFSET 8.77824 4.35084 1.2192
    CHANNELS 3 Zrotation Xrotation Yrotation
    JOINT lThigh
    {
      OFFSET 0 -1.70687 -2.19456
      CHANNELS 3 Zrotation Xrotation Yrotation
      JOINT lShin
      {
        OFFSET 0 -36.8199 0.73152
        CHANNELS 3 Zrotation Xrotation Yrotation
        JOINT lFoot
        {
          OFFSET -0.73152 -45.1104 -5.12064
          CHANNELS 3 Zrotation Xrotation Yrotation
          End Site
          {
            OFFSET 1.1221 -3.69964 12.103
          }
        }
      }
    }
  }
}
MOTION
Frames:	4
Frame Time:	0.00833333
-8.38162 83.3998 46.9557 -3.1421 18.188 5.9117 5.40976 -2.29815 17.3124 -8.55741 -13.2113 3.844 -8.42194 7.04819 -12.9648 12.2717 -4.97473 -23.5205 -0.0 0.0 0.0 -0.0 0.0 0.0 6.15742e-14 3.17654e-15 6.29367e-14 72.8947 -13.9141 61.3887 -8.45506 -3.23459 14.9829 -1.06529 28.6717 4.37725 -1.21629e-09 -2.71652e-09 -7.22549e-10 -2.11853e-09 -4.76315e-09 -1.24042e-09 -1.21628e-09 -2.71652e-09 -7.22557e-10 7.73091 5.47488 0.417314 -1.2163e-09 -2.71653e-09 -7.22549e-10 2.90554 0.965183 0.102902 -1.21629e-09 -2.71653e-09 -7.22544e-10 10.2786 0.731801 0.0259123 -1.2163e-09 -2.71652e-09 -7.22538e-10 2.22167 -0.733487 -0.20892 6.15272e-14 3.18434e-15 6.27426e-14 -71.0277 -1.6624 26.5213 25.9091 -23.2023 -56.3977 0.262592 -14.471 2.07826 -6.45442e-10 1.46923e-10 -6.21064e-10 -1.11036e-09 2.5338e-10 -1.07621e-09 -6.45448e-10 1.46922e-10 -6.21058e-10 -7.73091 5.47488 -0.417314 -6.45442e-10 1.46925e-10 -6.21065e-10 -2.90554 0.965183 -0.102902 -6.45451e-10 1.46926e-10 -6.21065e-10 -10.2786 0.731801 -0.0259123 -6.45438e-10 1.46926e-10 -6.21072e-10 -2.22167 -0.733487 0.20892 -2.03217e-16 0.0 -3.88251e-19 4.24999 1.17264 22.7836 0.0585044 -2.96913 0.152686 -11.9093 -11.1666 -37.6493 2.03217e-16 0.0 3.88251e-19 0.785683 -12.4661 -30.466 0.0194913 14.4543 -0.138838 1.06643 -3.82556 21.3313
-8.46845 83.4106 47.1353 -3.0105 18.9365 5.8121 5.46352 -2.40749 17.3295 -8.53663 -13.0592 3.86135 -8.43952 7.21039 -13.1391 12.6246 -4.57869 -23.8949 -0.0 0.0 0.0 -0.0 0.0 0.0 8.11323e-14 -9.06505e-14 2.55438e-14 77.45 -16.3371 61.6334 -7.98503 -3.00388 14.0733 -1.52119 32.7149 5.17955 5.96259e-10 4.42263e-09 -2.11717e-10 1.02397e-09 7.64767e-09 -3.80324e-10 5.96271e-10 4.42263e-09 -2.11726e-10 7.73091 5.47488 0.417314 5.96257e-10 4.42263e-09 -2.11717e-10 2.90554 0.965183 0.102902 5.96267e-10 4.42263e-09 -2.11713e-10 10.2786 0.731801 0.0259123 5.96255e-10 4.42263e-09 -2.11707e-10 2.22167 -0.733487 -0.20892 8.10813e-14 -9.06413e-14 2.5345e-14 -70.823 -2.86448 26.9251 25.7005 -22.689 -55.5575 0.282592 -14.9598 2.15208 -6.36627e-10 -2.21287e-10 -5.07063e-10 -1.09397e-09 -3.83833e-10 -8.83141e-10 -6.36633e-10 -2.21288e-10 -5.07054e-10 -7.73091 5.47488 -0.417314 -6.36626e-10 -2.21285e-10 -5.07063e-10 -2.90554 0.965183 -0.102902 -6.36636e-10 -2.21284e-10 -5.07062e-10 -10.2786 0.731801 -0.0259123 -6.36622e-10 -2.21285e-10 -5.07069e-10 -2.22167 -0.733487 0.20892 -2.03217e-16 0.0 -3.88251e-19 4.4704 1.41328 22.7313 0.0615461 -2.9871 0.157486 -12.3033 -11.3334 -38.3095 2.03217e-16 0.0 3.88251e-19 0.917574 -12.5514 -30.4297 0.0208709 14.5038 -0.131128 0.977097 -3.59888 20.5896
-8.52324 83.4142 47.2865 -2.7344 19.6409 5.8285 5.49232 -2.55184 17.3796 -8.49287 -12.9034 3.88989 -8.55071 7.37183 -13.3135 13.1034 -4.06225 -24.2654 -0.0 0.0 0.0 -0.0 0.0 0.0 1.81366e-14 -1.14867e-14 -7.21724e-14 79.9756 -17.831 61.3516 -7.6733 -2.82909 13.5247 -1.82199 34.9308 5.65535 1.11377e-09 1.98447e-09 7.79803e-10 1.94574e-09 3.60533e-09 1.32448e-09 1.11378e-09 1.98447e-09 7.79794e-10 7.73091 5.47488 0.417314 1.11377e-09 1.98447e-09 7.79803e-10 2.90554 0.965183 0.102902 1.11378e-09 1.98447e-09 7.79806e-10 10.2786 0.731801 0.0259123 1.11377e-09 1.98447e-09 7.79811e-10 2.22167 -0.733487 -0.20892 1.80931e-14 -1.1473e-14 -7.23825e-14 -70.6204 -3.73933 27.268 25.4777 -22.1603 -54.7039 0.291228 -15.1373 2.17926 -1.39946e-10 -6.44644e-10 -6.79969e-10 -2.33137e-10 -1.11672e-09 -1.18006e-09 -1.39953e-10 -6.44643e-10 -6.79956e-10 -7.73091 5.47488 -0.417314 -1.39945e-10 -6.44641e-10 -6.79967e-10 -2.90554 0.965183 -0.102902 -1.39954e-10 -6.44641e-10 -6.79967e-10 -10.2786 0.731801 -0.0259123 -1.3994e-10 -6.44642e-10 -6.79973e-10 -2.22167 -0.733487 0.20892 -2.03217e-16 0.0 -3.88251e-19 4.67688 1.64299 22.6419 0.0645634 -2.99514 0.164267 -12.687 -11.5313 -38.8641 2.03217e-16 0.0 3.88251e-19 1.01206 -12.5696 -30.47 0.0219149 14.5257 -0.124462 0.936185 -3.48033 20.0919
-8.60194 83.4146 47.4375 -2.5774 20.315 5.8167 5.49898 -2.7241 17.4275 -8.41981 -12.7498 3.92015 -8.713 7.53252 -13.4847 13.6612 -3.45749 -24.6328 -0.0 0.0 0.0 -0.0 0.0 0.0 -9.73933e-14 1.7333e-13 -2.11578e-13 81.0494 -18.6712 60.5149 -7.58719 -2.78641 13.3664 -1.93643 35.88 5.85639 9.34892e-10 -6.10484e-09 2.13732e-09 1.67651e-09 -1.01314e-08 3.66855e-09 9.34902e-10 -6.10486e-09 2.13732e-09 7.73091 5.47488 0.417314 9.3489e-10 -6.10485e-09 2.13732e-09 2.90554 0.965183 0.102902 9.34896e-10 -6.10485e-09 2.13733e-09 10.2786 0.731801 0.0259123 9.34884e-10 -6.10484e-09 2.13733e-09 2.22167 -0.733487 -0.20892 -9.74221e-14 1.7335e-13 -2.11805e-13 -70.4265 -4.43809 27.5727 25.2325 -21.5987 -53.8195 0.291228 -15.1014 2.17415 6.73494e-10 -1.1417e-09 -1.02135e-09 1.17598e-09 -1.9773e-09 -1.76462e-09 6.73487e-10 -1.1417e-09 -1.02133e-09 -7.73091 5.47488 -0.417314 6.73495e-10 -1.1417e-09 -1.02135e-09 -2.90554 0.965183 -0.102902 6.73489e-10 -1.1417e-09 -1.02135e-09 -10.2786 0.731801 -0.0259123 6.73503e-10 -1.1417e-09 -1.02135e-09 -2.22167 -0.733487 0.20892 -2.03217e-16 0.0 -3.88251e-19 4.88514 1.87221 22.5184 0.067553 -2.99525 0.172615 -13.0616 -11.7481 -39.3407 2.03217e-16 0.0 3.88251e-19 1.08678 -12.5294 -30.5773 0.0227751 14.5281 -0.118336 0.931708 -3.45352 19.777
